Patient4_TMGait_0pt6_02_right_40_EMG.mot
version=1
nRows=17
nColumns=33
inDegrees=no
endheader
time	1LAddLong	2LGlutMax	3LGlutMed	4LIliopsoas	5LSemiMemb	6LBicFemLong	7LRecFem	8LVastMed	9LVastLat	10LGasMed	11LTibAnt	12lTibPost	13LPeroneusLong	14LSol	15LExtDigLong	16LFlexDigLong	17RAddLong	18RGlutMax	19RGlutMed	20RIliopsoas	21RSemiMemb	22RBicFemLong	23RRecFem	24RVastMed	25RVastLat	26RGasMed	27RTibAnt	28RTibPost	29RPeroneusLong	30RSol	31RExtDigLong	32RFlexDigLong
48.657	-0.025482	-0.64392	0.11566	0.008087	0.000763	-0.009613	-0.23285	-0.007477	0.086517	-0.14771	-0.005493	0.2945	-0.024414	-0.39673	0.045166	0.23605	-0.016327	-1.1313	-1.3574	0.24872	0.2121	0.001068	0.21393	0.083313	-0.023804	0.039673	0.058594	-0.019684	1.0188	-0.34286	-0.005035	-0.007477
48.658	-0.027313	-0.70267	0.10727	-0.014343	0.004425	-0.044861	-0.12863	-0.009308	0.077209	0.21088	-0.011902	0.026093	0.052795	-0.091248	0.032196	0.052643	0.032959	-1.2677	-1.6568	0.19211	0.24353	-0.53863	0.33402	0.0383	-0.068817	0.00946	0.14679	-0.028992	0.14633	-0.39963	-0.002441	-0.002289
48.659	-0.018463	-0.69916	0.10819	0.002594	0.008087	-0.029449	-0.19348	-0.003357	0.062714	0.81314	-0.019836	-0.21301	-0.19974	0.22186	0.05722	0.019531	0.068359	-1.3797	-1.299	0.024567	0.15778	-0.67932	0.30121	0.069885	-0.046997	-0.10254	0.13184	-0.036163	-0.086212	-0.40451	0.001984	-0.005951
48.66	-0.014801	-0.73395	0.10193	0.029297	0.014343	-0.027618	-0.22232	-0.009155	0.030975	0.46906	-0.006104	0.007782	-0.47897	0.28122	0.041504	0.02533	0.066071	-1.3805	-0.9932	-0.10864	-0.1564	-0.672	0.24185	0.18509	-0.020752	-0.06897	-0.13702	-0.058594	0.08728	0.006866	-0.000916	-0.008545
48.661	-0.009155	-0.77377	0.097504	0.061951	0.010986	-0.025482	-0.26474	-0.014191	0.012665	-0.16037	-0.001526	-0.040436	-0.27466	0.22659	-0.032501	0.042725	-0.002899	-1.4262	-1.4333	-0.2652	-0.24216	-0.57434	0.2092	0.1236	-0.02594	0.040741	-0.26245	0.095062	-0.36926	0.44632	-0.002594	-0.005646
48.662	-0.020752	-0.8403	0.095215	0.049591	0.012817	-0.027313	-0.27359	-0.025024	0.024567	-0.40878	-0.003357	-0.017548	-0.18036	0.017395	-0.0737	0.043335	-0.032959	-1.3585	-1.3873	-0.23544	-0.11276	-0.36545	0.19577	0.06897	-0.035706	0.16373	-0.22675	0.03067	-0.41275	0.5632	-0.007019	-0.014038
48.663	0.05127	-0.90912	0.11414	0.043182	0.015869	-0.028992	-0.37186	-0.026398	0.020752	-0.46768	-0.010986	-0.013123	-0.089874	0.057068	-0.053101	0.057983	-0.091095	-1.0573	-0.78018	-0.041199	0.13748	-0.084686	0.15869	0.1889	-0.060577	0.055695	0.13107	-0.043182	-0.8429	0.59815	-0.009918	-0.011444
48.664	0.050659	-0.99518	0.09079	0.039825	0.014343	-0.012512	-0.51224	-0.01709	0.024109	-0.30411	-0.006256	-0.000916	-0.095978	-0.019226	0.011597	0.03006	-0.10056	-0.68558	-0.47669	0.098572	-0.13351	-0.048828	0.21439	0.18707	-0.08606	-0.048218	0.18692	-0.054626	-0.59815	0.5571	-0.005798	-0.010986
48.665	0.019989	-1.0884	0.09552	0.022125	0.010986	0.010986	-0.36545	-0.00061	0.019226	-0.26489	-0.018005	0.001984	-0.11017	-0.21713	0.030823	0.001984	-0.090332	-0.44922	-0.7135	0.30273	0.11551	-0.056	0.18112	0.16998	-0.00061	-0.11887	0.080109	-0.045776	0.13336	0.6041	0.004883	-0.003967
48.666	0.02121	-1.0931	0.089111	-0.021515	0.013428	-0.007629	-0.18494	0.002899	0.013885	-0.31921	-0.016632	0.024261	-0.17502	-0.19287	0.02594	0.012207	-0.028381	-0.26337	-0.73929	0.21912	0.33844	-0.022583	0.15106	0.084381	0.10376	-0.089874	0.04425	-0.056763	0.98297	0.38284	-0.00885	-0.001984
48.667	-0.036621	-1.162	0.08316	-0.006104	0.019989	-0.019073	-0.055542	-0.005951	-0.018005	-0.24811	-0.027466	0.006561	-0.18158	-0.078125	0.006714	0.019073	-0.016022	-0.18616	-0.93124	0.057983	0.19486	0.18158	0.18417	0.015411	0.092163	-0.02594	0.013275	-0.013123	1.0172	0.24521	-0.006714	0.004272
48.668	0.032349	-1.1519	0.061951	-0.019836	0.012817	-0.019379	-0.034943	-0.011597	-0.016479	-0.19806	-0.032196	0.003662	-0.12268	0.17746	0.047302	0.00946	0.026245	-0.1088	-1.3168	-0.037689	-0.00412	0.24719	0.224	-0.13489	-0.05127	0.03891	0.224	0.070953	-1.0277	-0.10025	-0.002441	0.003815
48.669	-0.001373	-1.1238	0.059967	-0.023651	0.016327	-0.019073	-0.081024	-0.002136	-0.052795	-0.011902	-0.034485	0.028534	-0.036774	0.39993	0.12207	0.010071	0.052795	-0.055084	-1.169	-0.006409	-0.15564	0.26764	0.15579	-0.19486	-0.13672	0.10407	0.23377	0.016022	-1.031	-0.16403	0.000305	-0.002441
48.67	-0.010834	-1.158	0.077667	-0.027161	0.01236	0.009003	-0.097198	0.009003	-0.076904	0.1091	-0.003662	0.08606	-0.14099	0.40863	0.13123	0.062256	0.056458	-0.055237	-1.1665	0.014954	-0.46768	0.15549	0.063934	-0.3096	-0.16815	0.12695	0.12909	0.077362	0.25406	-0.24414	-0.001678	-0.005493
48.671	-0.013428	-1.136	0.092468	-0.013123	0.011292	-0.002594	-0.021057	0.003052	-0.089264	0.065613	-0.004883	-0.034943	-0.2562	0.30731	0.075836	0.038147	0.065613	-0.016174	-0.69351	-0.053558	-0.20996	0.00351	0.13947	-0.30182	-0.23407	0.1149	-0.089874	0.041962	2.8906	-0.62622	0.003357	-0.005646
48.672	-0.00946	-1.0979	0.08728	0.017242	0.012512	-0.002747	0.10437	0.01358	-0.084229	0.016785	0.027008	-0.14877	-0.11856	0.30487	0.011139	0.042572	0.066528	0.015106	-0.11887	-0.078735	0.18021	0.27191	0.17914	-0.121	-0.073853	0.11353	-0.2269	0.086975	3.2047	-0.74127	-0.006561	-0.007019
48.673	-0.008392	-1.0487	0.019836	0.005341	0.022583	-0.019684	0.15991	0.020599	-0.085907	-0.014954	0.025482	-0.001984	-0.11017	0.16373	0.016479	0.046234	0.040588	-0.002441	-0.75928	-0.022583	0.30258	0.44617	0.22568	0.031281	0.12054	0.10223	-0.10635	0.028839	-0.41672	-0.3566	-0.011902	-0.007019
